<mxfile host="65bd71144e">
    <diagram id="rkLJ_AcX_zdgfZRn-Rlr" name="Page-1">
        <mxGraphModel dx="2037" dy="1162" grid="1" gridSize="10" guides="1" tooltips="1" connect="1" arrows="1" fold="1" page="1" pageScale="1" pageWidth="850" pageHeight="1100" math="0" shadow="0">
            <root>
                <mxCell id="0"/>
                <mxCell id="1" parent="0"/>
                <mxCell id="24" value="" style="group" parent="1" vertex="1" connectable="0">
                    <mxGeometry x="100" y="140" width="140" height="100" as="geometry"/>
                </mxCell>
                <mxCell id="14" value="" style="group" parent="24" vertex="1" connectable="0">
                    <mxGeometry width="120" height="80" as="geometry"/>
                </mxCell>
                <mxCell id="9" value="" style="rounded=0;whiteSpace=wrap;html=1;align=left;" parent="14" vertex="1">
                    <mxGeometry width="120" height="20" as="geometry"/>
                </mxCell>
                <mxCell id="10" value="" style="rounded=0;whiteSpace=wrap;html=1;align=left;" parent="14" vertex="1">
                    <mxGeometry y="20" width="120" height="60" as="geometry"/>
                </mxCell>
                <mxCell id="18" value="" style="group" parent="24" vertex="1" connectable="0">
                    <mxGeometry x="10" y="10" width="120" height="80" as="geometry"/>
                </mxCell>
                <mxCell id="19" value="" style="rounded=0;whiteSpace=wrap;html=1;align=left;" parent="18" vertex="1">
                    <mxGeometry width="120" height="20" as="geometry"/>
                </mxCell>
                <mxCell id="20" value="" style="rounded=0;whiteSpace=wrap;html=1;align=left;" parent="18" vertex="1">
                    <mxGeometry y="20" width="120" height="60" as="geometry"/>
                </mxCell>
                <mxCell id="21" value="" style="group" parent="24" vertex="1" connectable="0">
                    <mxGeometry x="20" y="20" width="120" height="80" as="geometry"/>
                </mxCell>
                <mxCell id="22" value="DataBaseGenerator" style="rounded=0;whiteSpace=wrap;html=1;align=left;" parent="21" vertex="1">
                    <mxGeometry width="120" height="20" as="geometry"/>
                </mxCell>
                <mxCell id="23" value="&lt;span&gt;update_data()&lt;/span&gt;" style="rounded=0;whiteSpace=wrap;html=1;align=left;verticalAlign=top;" parent="21" vertex="1">
                    <mxGeometry y="20" width="120" height="60" as="geometry"/>
                </mxCell>
                <mxCell id="25" value="" style="group" parent="1" vertex="1" connectable="0">
                    <mxGeometry x="300" y="345" width="140" height="100" as="geometry"/>
                </mxCell>
                <mxCell id="26" value="" style="group" parent="25" vertex="1" connectable="0">
                    <mxGeometry width="120" height="80" as="geometry"/>
                </mxCell>
                <mxCell id="27" value="" style="rounded=0;whiteSpace=wrap;html=1;align=left;" parent="26" vertex="1">
                    <mxGeometry width="120" height="20" as="geometry"/>
                </mxCell>
                <mxCell id="28" value="" style="rounded=0;whiteSpace=wrap;html=1;align=left;" parent="26" vertex="1">
                    <mxGeometry y="20" width="120" height="60" as="geometry"/>
                </mxCell>
                <mxCell id="29" value="" style="group" parent="25" vertex="1" connectable="0">
                    <mxGeometry x="10" y="10" width="120" height="80" as="geometry"/>
                </mxCell>
                <mxCell id="30" value="" style="rounded=0;whiteSpace=wrap;html=1;align=left;" parent="29" vertex="1">
                    <mxGeometry width="120" height="20" as="geometry"/>
                </mxCell>
                <mxCell id="31" value="" style="rounded=0;whiteSpace=wrap;html=1;align=left;" parent="29" vertex="1">
                    <mxGeometry y="20" width="120" height="60" as="geometry"/>
                </mxCell>
                <mxCell id="32" value="" style="group" parent="25" vertex="1" connectable="0">
                    <mxGeometry x="20" y="20" width="120" height="80" as="geometry"/>
                </mxCell>
                <mxCell id="33" value="DataBaseReader" style="rounded=0;whiteSpace=wrap;html=1;align=left;" parent="32" vertex="1">
                    <mxGeometry width="120" height="20" as="geometry"/>
                </mxCell>
                <mxCell id="34" value="load_db()&lt;br&gt;get_dataframe(t1, t2)" style="rounded=0;whiteSpace=wrap;html=1;align=left;" parent="32" vertex="1">
                    <mxGeometry y="20" width="120" height="60" as="geometry"/>
                </mxCell>
                <mxCell id="40" value="" style="group" parent="1" vertex="1" connectable="0">
                    <mxGeometry x="140" y="310" width="80" height="180" as="geometry"/>
                </mxCell>
                <mxCell id="39" value="Data" style="rounded=0;whiteSpace=wrap;html=1;align=left;labelPosition=center;verticalLabelPosition=middle;verticalAlign=top;horizontal=1;spacing=2;" parent="40" vertex="1">
                    <mxGeometry width="80" height="180" as="geometry"/>
                </mxCell>
                <mxCell id="35" value="Database&lt;br&gt;Raw" style="shape=cylinder3;whiteSpace=wrap;html=1;boundedLbl=1;backgroundOutline=1;size=5.5294117647059124;" parent="40" vertex="1">
                    <mxGeometry x="20" y="18" width="60" height="60" as="geometry"/>
                </mxCell>
                <mxCell id="36" value="Column description" style="shape=internalStorage;whiteSpace=wrap;html=1;backgroundOutline=1;dx=10;dy=10;" parent="40" vertex="1">
                    <mxGeometry x="19" y="90" width="60" height="50" as="geometry"/>
                </mxCell>
                <mxCell id="37" value="Version" style="rounded=0;whiteSpace=wrap;html=1;" parent="40" vertex="1">
                    <mxGeometry x="24" y="151" width="50" height="20" as="geometry"/>
                </mxCell>
                <mxCell id="41" style="edgeStyle=none;html=1;entryX=0.5;entryY=0;entryDx=0;entryDy=0;startArrow=classic;startFill=1;strokeWidth=3;" parent="1" source="23" target="39" edge="1">
                    <mxGeometry relative="1" as="geometry"/>
                </mxCell>
                <mxCell id="44" style="edgeStyle=none;html=1;exitX=1;exitY=0.5;exitDx=0;exitDy=0;entryX=0;entryY=0.25;entryDx=0;entryDy=0;strokeWidth=3;" parent="1" source="39" target="34" edge="1">
                    <mxGeometry relative="1" as="geometry"/>
                </mxCell>
                <mxCell id="56" value="" style="edgeStyle=none;html=1;entryX=1;entryY=0.5;entryDx=0;entryDy=0;" parent="1" source="54" target="34" edge="1">
                    <mxGeometry relative="1" as="geometry">
                        <mxPoint x="450" y="415" as="targetPoint"/>
                    </mxGeometry>
                </mxCell>
                <mxCell id="52" value="" style="group" parent="1" vertex="1" connectable="0">
                    <mxGeometry x="530" y="365" width="120" height="80" as="geometry"/>
                </mxCell>
                <mxCell id="53" value="FeatureGenerator" style="rounded=0;whiteSpace=wrap;html=1;align=left;" parent="52" vertex="1">
                    <mxGeometry width="120" height="20" as="geometry"/>
                </mxCell>
                <mxCell id="54" value="generate_features()&lt;br&gt;load_features()" style="rounded=0;whiteSpace=wrap;html=1;align=left;" parent="52" vertex="1">
                    <mxGeometry y="20" width="120" height="60" as="geometry"/>
                </mxCell>
                <mxCell id="57" value="" style="group" parent="1" vertex="1" connectable="0">
                    <mxGeometry x="720" y="315" width="80" height="180" as="geometry"/>
                </mxCell>
                <mxCell id="58" value="Features" style="rounded=0;whiteSpace=wrap;html=1;align=left;labelPosition=center;verticalLabelPosition=middle;verticalAlign=top;horizontal=1;spacing=2;" parent="57" vertex="1">
                    <mxGeometry y="-10" width="80" height="190" as="geometry"/>
                </mxCell>
                <mxCell id="59" value="Features" style="shape=cylinder3;whiteSpace=wrap;html=1;boundedLbl=1;backgroundOutline=1;size=5.5294117647059124;" parent="57" vertex="1">
                    <mxGeometry x="20" y="18" width="60" height="60" as="geometry"/>
                </mxCell>
                <mxCell id="60" value="Features description" style="shape=internalStorage;whiteSpace=wrap;html=1;backgroundOutline=1;dx=10;dy=10;" parent="57" vertex="1">
                    <mxGeometry x="19" y="90" width="60" height="50" as="geometry"/>
                </mxCell>
                <mxCell id="61" value="Version" style="rounded=0;whiteSpace=wrap;html=1;" parent="57" vertex="1">
                    <mxGeometry x="24" y="151" width="50" height="20" as="geometry"/>
                </mxCell>
                <mxCell id="63" style="edgeStyle=none;html=1;exitX=1;exitY=0.5;exitDx=0;exitDy=0;startArrow=classic;startFill=1;strokeWidth=3;" parent="1" source="54" edge="1">
                    <mxGeometry relative="1" as="geometry">
                        <mxPoint x="720" y="415.52941176470586" as="targetPoint"/>
                    </mxGeometry>
                </mxCell>
                <mxCell id="65" value="" style="group" parent="1" vertex="1" connectable="0">
                    <mxGeometry x="530" y="510" width="120" height="80" as="geometry"/>
                </mxCell>
                <mxCell id="66" value="ModelTrainer" style="rounded=0;whiteSpace=wrap;html=1;align=left;" parent="65" vertex="1">
                    <mxGeometry width="120" height="20" as="geometry"/>
                </mxCell>
                <mxCell id="67" value="feature selection&lt;br&gt;hyperparam tuning&lt;br&gt;training&lt;br&gt;testing" style="rounded=0;whiteSpace=wrap;html=1;align=left;" parent="65" vertex="1">
                    <mxGeometry y="20" width="120" height="60" as="geometry"/>
                </mxCell>
                <mxCell id="71" style="edgeStyle=none;shape=connector;rounded=1;html=1;exitX=0.5;exitY=0;exitDx=0;exitDy=0;labelBackgroundColor=default;fontFamily=Helvetica;fontSize=11;fontColor=default;endArrow=classic;strokeColor=default;" parent="1" source="66" edge="1">
                    <mxGeometry relative="1" as="geometry">
                        <mxPoint x="589.8823529411766" y="450" as="targetPoint"/>
                    </mxGeometry>
                </mxCell>
                <mxCell id="72" style="edgeStyle=none;html=1;exitX=1;exitY=0.5;exitDx=0;exitDy=0;strokeWidth=3;" parent="1" edge="1">
                    <mxGeometry relative="1" as="geometry">
                        <mxPoint x="280" y="80" as="sourcePoint"/>
                        <mxPoint x="340" y="80" as="targetPoint"/>
                    </mxGeometry>
                </mxCell>
                <mxCell id="73" value="Data flow" style="text;html=1;align=left;verticalAlign=middle;resizable=0;points=[];autosize=1;strokeColor=none;fillColor=none;fontSize=11;fontFamily=Helvetica;fontColor=default;" parent="1" vertex="1">
                    <mxGeometry x="345" y="70" width="60" height="20" as="geometry"/>
                </mxCell>
                <mxCell id="76" value="" style="edgeStyle=none;html=1;entryX=1;entryY=0.5;entryDx=0;entryDy=0;" parent="1" edge="1">
                    <mxGeometry relative="1" as="geometry">
                        <mxPoint x="340" y="100" as="sourcePoint"/>
                        <mxPoint x="280" y="100" as="targetPoint"/>
                    </mxGeometry>
                </mxCell>
                <mxCell id="77" value="Has a&amp;nbsp;" style="text;html=1;align=left;verticalAlign=middle;resizable=0;points=[];autosize=1;strokeColor=none;fillColor=none;fontSize=11;fontFamily=Helvetica;fontColor=default;" parent="1" vertex="1">
                    <mxGeometry x="345" y="90" width="50" height="20" as="geometry"/>
                </mxCell>
                <mxCell id="83" value="" style="group" parent="1" vertex="1" connectable="0">
                    <mxGeometry x="550" y="650" width="80" height="120" as="geometry"/>
                </mxCell>
                <mxCell id="79" value="Models" style="rounded=0;whiteSpace=wrap;html=1;align=left;labelPosition=center;verticalLabelPosition=middle;verticalAlign=top;horizontal=1;spacing=2;" parent="83" vertex="1">
                    <mxGeometry width="80" height="120" as="geometry"/>
                </mxCell>
                <mxCell id="80" value="Models" style="shape=cylinder3;whiteSpace=wrap;html=1;boundedLbl=1;backgroundOutline=1;size=5.5294117647059124;" parent="83" vertex="1">
                    <mxGeometry x="20" y="28" width="60" height="60" as="geometry"/>
                </mxCell>
                <mxCell id="82" value="Version" style="rounded=0;whiteSpace=wrap;html=1;" parent="83" vertex="1">
                    <mxGeometry x="25" y="90" width="50" height="20" as="geometry"/>
                </mxCell>
                <mxCell id="84" style="edgeStyle=none;shape=connector;rounded=1;html=1;exitX=0.5;exitY=1;exitDx=0;exitDy=0;entryX=0.5;entryY=0;entryDx=0;entryDy=0;labelBackgroundColor=default;fontFamily=Helvetica;fontSize=11;fontColor=default;endArrow=classic;strokeColor=default;strokeWidth=3;" parent="1" source="67" target="79" edge="1">
                    <mxGeometry relative="1" as="geometry"/>
                </mxCell>
                <mxCell id="85" value="Agent" style="rounded=0;whiteSpace=wrap;html=1;align=left;" parent="1" vertex="1">
                    <mxGeometry x="710" y="670" width="120" height="20" as="geometry"/>
                </mxCell>
                <mxCell id="95" style="edgeStyle=none;shape=connector;rounded=1;html=1;exitX=0;exitY=0;exitDx=0;exitDy=0;labelBackgroundColor=default;fontFamily=Helvetica;fontSize=11;fontColor=default;endArrow=classic;strokeColor=default;strokeWidth=1;" parent="1" source="86" edge="1">
                    <mxGeometry relative="1" as="geometry">
                        <mxPoint x="380" y="450" as="targetPoint"/>
                        <Array as="points">
                            <mxPoint x="660" y="620"/>
                            <mxPoint x="470" y="620"/>
                        </Array>
                    </mxGeometry>
                </mxCell>
                <mxCell id="111" style="edgeStyle=none;html=1;exitX=0.5;exitY=1;exitDx=0;exitDy=0;entryX=0.5;entryY=0;entryDx=0;entryDy=0;strokeWidth=3;" edge="1" parent="1" source="86" target="107">
                    <mxGeometry relative="1" as="geometry"/>
                </mxCell>
                <mxCell id="86" value="predict()&lt;br&gt;submit()" style="rounded=0;whiteSpace=wrap;html=1;align=left;" parent="1" vertex="1">
                    <mxGeometry x="710" y="690" width="120" height="60" as="geometry"/>
                </mxCell>
                <mxCell id="88" value="Table" style="shape=internalStorage;whiteSpace=wrap;html=1;backgroundOutline=1;fontFamily=Helvetica;fontSize=11;fontColor=default;dx=10;dy=10;" parent="1" vertex="1">
                    <mxGeometry x="420" y="70" width="70" height="40" as="geometry"/>
                </mxCell>
                <mxCell id="89" value="" style="group" parent="1" vertex="1" connectable="0">
                    <mxGeometry x="500" y="70" width="120" height="80" as="geometry"/>
                </mxCell>
                <mxCell id="90" value="Class" style="rounded=0;whiteSpace=wrap;html=1;align=left;" parent="89" vertex="1">
                    <mxGeometry width="120" height="20" as="geometry"/>
                </mxCell>
                <mxCell id="91" value="&lt;span&gt;Class responsibilities (even as function names)&lt;/span&gt;" style="rounded=0;whiteSpace=wrap;html=1;align=left;verticalAlign=top;" parent="89" vertex="1">
                    <mxGeometry y="20" width="120" height="60" as="geometry"/>
                </mxCell>
                <mxCell id="92" value="Data" style="shape=cylinder3;whiteSpace=wrap;html=1;boundedLbl=1;backgroundOutline=1;size=5.5294117647059124;" parent="1" vertex="1">
                    <mxGeometry x="640" y="70" width="60" height="60" as="geometry"/>
                </mxCell>
                <mxCell id="94" style="edgeStyle=none;shape=connector;rounded=1;html=1;entryX=-0.008;entryY=0.383;entryDx=0;entryDy=0;entryPerimeter=0;labelBackgroundColor=default;fontFamily=Helvetica;fontSize=11;fontColor=default;endArrow=classic;strokeColor=default;strokeWidth=3;" parent="1" source="79" target="86" edge="1">
                    <mxGeometry relative="1" as="geometry"/>
                </mxCell>
                <mxCell id="96" value="latest data for&lt;br&gt;new prediction" style="text;html=1;align=center;verticalAlign=middle;resizable=0;points=[];autosize=1;strokeColor=none;fillColor=none;fontSize=11;fontFamily=Helvetica;fontColor=default;" parent="1" vertex="1">
                    <mxGeometry x="680" y="620" width="90" height="30" as="geometry"/>
                </mxCell>
                <mxCell id="97" value="" style="group" parent="1" vertex="1" connectable="0">
                    <mxGeometry x="180" y="730" width="120" height="80" as="geometry"/>
                </mxCell>
                <mxCell id="98" value="Dashboard" style="rounded=0;whiteSpace=wrap;html=1;align=left;" parent="97" vertex="1">
                    <mxGeometry width="120" height="20" as="geometry"/>
                </mxCell>
                <mxCell id="99" value="" style="rounded=0;whiteSpace=wrap;html=1;align=left;" parent="97" vertex="1">
                    <mxGeometry y="20" width="120" height="60" as="geometry"/>
                </mxCell>
                <mxCell id="100" style="edgeStyle=none;shape=connector;rounded=1;html=1;exitX=0.5;exitY=0;exitDx=0;exitDy=0;labelBackgroundColor=default;fontFamily=Helvetica;fontSize=11;fontColor=default;endArrow=classic;strokeColor=default;strokeWidth=1;" parent="1" source="98" edge="1">
                    <mxGeometry relative="1" as="geometry">
                        <mxPoint x="350" y="450" as="targetPoint"/>
                    </mxGeometry>
                </mxCell>
                <mxCell id="101" style="edgeStyle=none;shape=connector;rounded=1;html=1;entryX=0;entryY=0.75;entryDx=0;entryDy=0;labelBackgroundColor=default;fontFamily=Helvetica;fontSize=11;fontColor=default;endArrow=classic;strokeColor=default;strokeWidth=1;" parent="1" source="98" target="54" edge="1">
                    <mxGeometry relative="1" as="geometry"/>
                </mxCell>
                <mxCell id="106" value="" style="group" parent="1" vertex="1" connectable="0">
                    <mxGeometry x="730" y="790" width="80" height="180" as="geometry"/>
                </mxCell>
                <mxCell id="107" value="Submissions" style="rounded=0;whiteSpace=wrap;html=1;align=left;labelPosition=center;verticalLabelPosition=middle;verticalAlign=top;horizontal=1;spacing=2;" parent="106" vertex="1">
                    <mxGeometry y="-10" width="80" height="190" as="geometry"/>
                </mxCell>
                <mxCell id="108" value="Submis&lt;br&gt;sions" style="shape=cylinder3;whiteSpace=wrap;html=1;boundedLbl=1;backgroundOutline=1;size=5.5294117647059124;" parent="106" vertex="1">
                    <mxGeometry x="20" y="18" width="60" height="60" as="geometry"/>
                </mxCell>
                <mxCell id="109" value="Submis&lt;br&gt;sions&lt;br&gt;info" style="shape=internalStorage;whiteSpace=wrap;html=1;backgroundOutline=1;dx=10;dy=10;" parent="106" vertex="1">
                    <mxGeometry x="19" y="90" width="60" height="50" as="geometry"/>
                </mxCell>
                <mxCell id="110" value="Version" style="rounded=0;whiteSpace=wrap;html=1;" parent="106" vertex="1">
                    <mxGeometry x="24" y="151" width="50" height="20" as="geometry"/>
                </mxCell>
            </root>
        </mxGraphModel>
    </diagram>
</mxfile>